# xmcd
#
# Track frame offsets: 
#        150
#        18840
#        34117
#        69915
#        87625
#        120077
#        138192
#        158260
#        178915
#        203667
#
# Disc length: 3109 seconds
#
# Revision: 0
# Processed by: cddbd v1.5.1PL2 Copyright (c) Steve Scherf et al.
# Submitted via: ExactAudioCopy v0.95b3
#
DISCID=710c230a
DTITLE=Pinetop Perkins - With Chicago Beau And The Blue Ice Band
DYEAR=1992
DGENRE=Blues
TTITLE0=Kidney Stew
TTITLE1=Yonder Wall
TTITLE2=Sunnyland Slim
TTITLE3=Hi-Heeled Sneakers
TTITLE4=Whiskey Headed Woman
TTITLE5=For You My Love
TTITLE6=Just Keep On Drinking
TTITLE7=Got My Mojo Working
TTITLE8=Merry Christmas Baby
TTITLE9=Don't Start Me Talking
EXTD=
EXTT0=
EXTT1=
EXTT2=
EXTT3=
EXTT4=
EXTT5=
EXTT6=
EXTT7=
EXTT8=
EXTT9=
PLAYORDER=
